<?xml version="1.0" encoding="UTF-8"?>
<svg data-bbox="-37.5 -37.5 450 450" height="500" viewBox="0 0 375 375" width="500" xmlns="http://www.w3.org/2000/svg" data-type="ugc">
    <g>
        <defs>
            <clipPath id="fc0413ea-5d86-4e74-8796-117231bb6644">
                <path d="M121.762 37.5h131.25V160h-131.25Zm0 0"/>
            </clipPath>
            <clipPath id="95357569-6215-4d14-9862-6ae3f2d2aa2b">
                <path d="M121.762 131h131.25v120.25h-131.25Zm0 0"/>
            </clipPath>
        </defs>
        <path fill="#ffffff" d="M412.5-37.5v450h-450v-450h450z"/>
        <path fill="#ffffff" d="M412.5-37.5v450h-450v-450h450z"/>
        <path fill="#000000" d="M412.5-37.5v450h-450v-450h450z"/>
        <g clip-path="url(#fc0413ea-5d86-4e74-8796-117231bb6644)">
            <path d="M153.625 157.492c.398.25.52.774.273 1.172a.845.845 0 0 1-1.168.27 65.943 65.943 0 0 1-22.746-23.922c-5.238-9.438-8.222-20.293-8.222-31.844a.849.849 0 1 1 1.7 0c-.001 11.258 2.905 21.836 8.003 31.02a64.265 64.265 0 0 0 22.16 23.304Zm33.762-118.289a.854.854 0 0 1-.852-.851c0-.47.383-.852.852-.852 18.12 0 34.527 7.352 46.402 19.234 11.875 11.883 19.223 28.301 19.223 46.434a65.77 65.77 0 0 1-2.43 17.75 65.315 65.315 0 0 1-7.133 16.394.846.846 0 0 1-1.164.282.846.846 0 0 1-.285-1.164 63.55 63.55 0 0 0 6.95-15.973 64 64 0 0 0 2.363-17.289c0-17.664-7.157-33.656-18.723-45.23-11.57-11.575-27.55-18.735-45.203-18.735Zm0 0" fill="#ffffff"/>
        </g>
        <g clip-path="url(#95357569-6215-4d14-9862-6ae3f2d2aa2b)">
            <path d="M223.21 132.598a.847.847 0 0 1 .954-1.403 65.95 65.95 0 0 1 21.227 23.653c4.863 9.168 7.62 19.632 7.62 30.734a.851.851 0 0 1-.85.852.848.848 0 0 1-.849-.852c0-10.816-2.683-21.008-7.421-29.937a64.264 64.264 0 0 0-20.68-23.047Zm-35.823 116.949a.85.85 0 0 1 0 1.7c-18.121 0-34.528-7.349-46.407-19.231-11.875-11.883-19.218-28.301-19.218-46.434 0-6.328.902-12.465 2.586-18.281a65.355 65.355 0 0 1 7.574-16.82.85.85 0 1 1 1.437.91 63.71 63.71 0 0 0-7.386 16.382 63.943 63.943 0 0 0-2.512 17.809c0 17.664 7.156 33.656 18.723 45.23 11.57 11.575 27.55 18.735 45.203 18.735Zm0 0" fill="#ffffff"/>
        </g>
        <path d="M166.325 70.652v8.18h.61c0-.184-.063 0-.063-.242 0-4.063 7.637-7.332 18.059-7.332v43.144c0 11.938-.363 16.243-5.574 16.243v.605h15.816v-.605c-5.21 0-5.09-4.305-5.09-16.243V71.258c10.422 0 18.059 3.27 18.059 7.332 0 .242-.063.058-.063.242h.606v-8.18Zm0 0" fill="#ffffff"/>
        <path d="M166.325 165.36v8.18h.61c0-.184-.063 0-.063-.242 0-4.063 7.637-7.332 18.059-7.332v43.144c0 11.938-.363 16.243-5.574 16.243v.605h15.816v-.605c-5.21 0-5.09-4.305-5.09-16.243v-43.144c10.422 0 18.059 3.27 18.059 7.332 0 .242-.063.058-.063.242h.606v-8.18Zm0 0" fill="#ffffff"/>
        <path stroke="#ffffff" d="M.5 0h29.79" fill="none" transform="matrix(1.51028 0 0 1.64103 164.408 150.548)" stroke-linecap="round"/>
        <path d="M50.207 287.991h1.73v6.457h.735v-6.457h1.734v-.683h-4.2Zm0 0" fill="#ffffff"/>
        <path d="M64.859 291.109c.922.218 1.554.46 1.89.734a.89.89 0 0 1 .344.723c0 .297-.062.539-.187.707-.317.437-.883.66-1.68.66-1.113 0-1.742-.38-1.879-1.133h-.863c.254 1.207 1.168 1.805 2.742 1.805.703 0 1.293-.149 1.766-.461.566-.367.859-.914.859-1.63 0-.585-.23-1.038-.691-1.355-.329-.23-.852-.441-1.579-.628-.734-.188-1.207-.348-1.425-.461-.485-.243-.727-.579-.715-1.02 0-.23.043-.43.148-.578.274-.41.754-.617 1.45-.617.976 0 1.53.312 1.68.922h.796c-.262-1.028-1.094-1.555-2.477-1.555-.632 0-1.187.168-1.648.504-.473.336-.715.832-.715 1.504 0 .914.735 1.543 2.184 1.879Zm0 0" fill="#ffffff"/>
        <path d="M77.128 294.468v-3.191h3.243v3.191h.738v-7.14h-.738v3.214h-3.243v-3.215h-.734v7.141Zm0 0" fill="#ffffff"/>
        <path d="M90.9 294.468v-7.14h-.735v7.14Zm0 0" fill="#ffffff"/>
        <path d="M100.69 293.734v-6.407h-.734v7.141h3.285v-.734Zm0 0" fill="#ffffff"/>
        <path d="M112.454 294.468v-7.14h-.734v7.14Zm0 0" fill="#ffffff"/>
        <path d="M127.054 290.898a3.578 3.578 0 0 0-1.07-2.563 3.795 3.795 0 0 0-1.168-.734 3.857 3.857 0 0 0-1.438-.274h-1.867v7.141h1.867c.504 0 .989-.086 1.438-.262.441-.18.832-.43 1.168-.746a3.49 3.49 0 0 0 .777-1.125 3.61 3.61 0 0 0 .293-1.437Zm-.715 0c0 .82-.293 1.5-.86 2.039-.566.535-1.26.797-2.081.797h-1.153v-5.672h1.153c.82 0 1.515.273 2.082.8.566.543.86 1.227.86 2.036Zm0 0" fill="#ffffff"/>
        <path d="m136.605 293.784 4.23-6.457h-5.344v.684h4.008l-4.23 6.457h5.386v-.684Zm0 0" fill="#ffffff"/>
        <path d="M150.101 294.468v-7.14h-.734v7.14Zm0 0" fill="#ffffff"/>
        <path d="M168.896 287.991h1.73v6.457h.735v-6.457h1.734v-.683h-4.2Zm0 0" fill="#ffffff"/>
        <path d="M185.817 294.468v-.684h-3.508v-2.539h3.403v-.695h-3.403v-2.539h3.508v-.684h-4.242v7.141Zm0 0" fill="#ffffff"/>
        <path d="M201.424 292.284h-.809c-.254.461-.597.84-1.039 1.114a2.673 2.673 0 0 1-1.46.418 2.664 2.664 0 0 1-2.016-.871c-.547-.555-.809-1.239-.809-2.036 0-.8.262-1.48.809-2.046.254-.266.558-.473.902-.633a2.378 2.378 0 0 1 1.008-.239c.328 0 .61.04.863.114.766.23 1.344.691 1.73 1.398h.81a3.646 3.646 0 0 0-1.302-1.64 3.446 3.446 0 0 0-1.996-.63c-.996 0-1.836.368-2.531 1.094a3.674 3.674 0 0 0-.754 1.176 3.48 3.48 0 0 0-.273 1.406c0 1.008.336 1.86 1.027 2.57.695.735 1.535 1.094 2.531 1.094.727 0 1.387-.21 2.008-.628a3.597 3.597 0 0 0 1.3-1.66Zm0 0" fill="#ffffff"/>
        <path d="M210.742 294.468v-3.191h3.243v3.191h.738v-7.14h-.738v3.214h-3.243v-3.215h-.734v7.141Zm0 0" fill="#ffffff"/>
        <path d="m224.513 289.206 4.012 5.703v-7.582h-.738v5.25l-4.008-5.699v7.59h.734Zm0 0" fill="#ffffff"/>
        <path d="M243.87 290.878c0 .817-.298 1.512-.864 2.078-.578.578-1.27.86-2.078.86-.809 0-1.5-.282-2.067-.86-.578-.566-.863-1.261-.863-2.078 0-.8.285-1.492.863-2.07a2.826 2.826 0 0 1 2.067-.86c.808 0 1.5.293 2.078.86.566.578.863 1.27.863 2.07Zm.733 0a3.71 3.71 0 0 0-.292-1.43 3.72 3.72 0 0 0-.79-1.164 3.754 3.754 0 0 0-1.164-.777 3.628 3.628 0 0 0-2.855 0c-.441.188-.832.45-1.168.777a3.644 3.644 0 0 0-1.07 2.594c0 .504.093.985.285 1.426a3.672 3.672 0 0 0 1.953 1.965c.437.187.922.285 1.426.285.504 0 .976-.098 1.43-.285a3.655 3.655 0 0 0 1.163-.79 3.64 3.64 0 0 0 .79-1.175c.187-.441.292-.922.292-1.426Zm0 0" fill="#ffffff"/>
        <path d="M254.08 293.734v-6.407h-.734v7.141h3.285v-.734Zm0 0" fill="#ffffff"/>
        <path d="M271.4 290.878c0 .817-.297 1.512-.863 2.078-.578.578-1.27.86-2.078.86-.809 0-1.5-.282-2.067-.86-.578-.566-.863-1.261-.863-2.078 0-.8.285-1.492.863-2.07a2.826 2.826 0 0 1 2.067-.86c.808 0 1.5.293 2.078.86.566.578.863 1.27.863 2.07Zm.735 0c0-.504-.106-.976-.293-1.43a3.72 3.72 0 0 0-.79-1.164 3.754 3.754 0 0 0-1.164-.777 3.628 3.628 0 0 0-2.855 0c-.441.188-.832.45-1.168.777a3.644 3.644 0 0 0-1.07 2.594c0 .504.093.985.285 1.426a3.672 3.672 0 0 0 1.953 1.965c.437.187.922.285 1.426.285.504 0 .976-.098 1.43-.285a3.655 3.655 0 0 0 1.163-.79 3.64 3.64 0 0 0 .79-1.175c.187-.441.293-.922.293-1.426Zm0 0" fill="#ffffff"/>
        <path d="M287.919 291.128h-3.715v.64h2.899c-.223.622-.59 1.126-1.114 1.493a2.927 2.927 0 0 1-1.754.555c-.82 0-1.511-.282-2.09-.86a2.89 2.89 0 0 1-.851-2.09c0-.808.285-1.5.863-2.078a2.837 2.837 0 0 1 2.078-.863c.61 0 1.164.18 1.657.527.504.344.863.797 1.093 1.375h.778a3.636 3.636 0 0 0-1.344-1.902 3.72 3.72 0 0 0-2.258-.734c-.46 0-.914.105-1.355.293a3.684 3.684 0 0 0-1.961 1.953 3.678 3.678 0 0 0-.285 1.441c0 .504.093.985.285 1.426.187.453.449.84.785 1.176a3.62 3.62 0 0 0 1.176.789c.441.187.926.285 1.43.285.859 0 1.636-.273 2.328-.832.695-.566 1.125-1.281 1.28-2.152Zm0 0" fill="#ffffff"/>
        <path d="M297.396 294.468v-7.14h-.734v7.14Zm0 0" fill="#ffffff"/>
        <path d="M310.695 294.468v-.684h-3.508v-2.539h3.403v-.695h-3.403v-2.539h3.508v-.684h-4.242v7.141Zm0 0" fill="#ffffff"/>
        <path d="M321.724 291.109c.922.218 1.554.46 1.89.734a.89.89 0 0 1 .344.723c0 .297-.062.539-.187.707-.317.437-.883.66-1.68.66-1.113 0-1.742-.38-1.879-1.133h-.863c.254 1.207 1.168 1.805 2.742 1.805.703 0 1.293-.149 1.766-.461.566-.367.859-.914.859-1.63 0-.585-.23-1.038-.692-1.355-.328-.23-.851-.441-1.578-.628-.734-.188-1.207-.348-1.425-.461-.485-.243-.727-.579-.715-1.02 0-.23.043-.43.148-.578.274-.41.754-.617 1.45-.617.976 0 1.53.312 1.68.922h.796c-.262-1.028-1.094-1.555-2.477-1.555-.632 0-1.187.168-1.648.504-.473.336-.715.832-.715 1.504 0 .914.734 1.543 2.184 1.879Zm0 0" fill="#ffffff"/>
        <path d="M112.563 319.203v-.539l-2.762-1.308 2.762-1.313v-.54l-3.2 1.583v.535Zm0 0" fill="#ffffff"/>
        <path d="M119.337 318.918v-5.105h-.528v5.105Zm0 0" fill="#ffffff"/>
        <path d="M129.77 316.367c0-.37-.074-.707-.21-1.023a2.525 2.525 0 0 0-.555-.809 2.747 2.747 0 0 0-1.863-.723h-1.337v5.106h1.336c.36 0 .707-.059 1.028-.188.316-.128.594-.308.836-.53a2.542 2.542 0 0 0 .766-1.832Zm-.511 0c0 .582-.211 1.07-.614 1.453-.406.383-.902.57-1.488.57h-.824v-4.05h.824a2.12 2.12 0 0 1 1.488.57c.403.39.614.88.614 1.457Zm0 0" fill="#ffffff"/>
        <path d="M139.05 318.918v-.488h-2.507v-1.817h2.43v-.496h-2.43v-1.816h2.508v-.488h-3.035v5.105Zm0 0" fill="#ffffff"/>
        <path d="m146.348 317.043.93-2.352.921 2.352Zm3.168 1.875-2.239-5.457-2.246 5.457h.57l.551-1.39h2.243l.546 1.39Zm0 0" fill="#ffffff"/>
        <path d="M156.907 316.516c.664.156 1.113.332 1.351.527.168.133.25.305.25.516 0 .21-.047.382-.137.504-.222.316-.628.472-1.199.472-.797 0-1.246-.27-1.343-.812h-.618c.18.863.832 1.293 1.961 1.293.5 0 .922-.106 1.262-.332.402-.262.613-.653.613-1.16 0-.422-.164-.747-.496-.97-.23-.167-.605-.316-1.125-.452-.523-.133-.863-.246-1.02-.329-.347-.171-.519-.414-.511-.73 0-.164.031-.305.105-.41.196-.293.54-.445 1.036-.445.699 0 1.097.226 1.203.66h.57c-.188-.735-.781-1.11-1.773-1.11-.45 0-.848.121-1.18.36-.336.242-.508.593-.508 1.074 0 .652.523 1.105 1.559 1.344Zm0 0" fill="#ffffff"/>
        <path d="M172.108 314.285h1.243v4.617h.523v-4.617h1.238v-.488h-3.004Zm0 0" fill="#ffffff"/>
        <path d="M185.667 316.352c0 .586-.211 1.078-.614 1.484-.414.414-.91.617-1.488.617a1.982 1.982 0 0 1-1.477-.617 1.993 1.993 0 0 1-.617-1.484c0-.57.203-1.067.617-1.48a2.008 2.008 0 0 1 1.477-.614c.578 0 1.074.207 1.488.613.403.414.614.91.614 1.48Zm.527 0c0-.36-.074-.7-.211-1.024a2.745 2.745 0 0 0-.563-.832 2.722 2.722 0 0 0-.832-.555 2.608 2.608 0 0 0-1.023-.21c-.36 0-.703.074-1.02.21a2.631 2.631 0 0 0-1.398 1.387 2.672 2.672 0 0 0 0 2.043c.137.324.324.602.566.84.239.242.516.43.833.562.316.137.66.204 1.019.204a2.601 2.601 0 0 0 2.418-1.606c.137-.316.21-.66.21-1.02Zm0 0" fill="#ffffff"/>
        <path d="M200.338 316.395v-2.079h1.183c.309 0 .559.098.747.293.18.196.277.434.277.735 0 .3-.098.55-.293.75a.967.967 0 0 1-.73.3Zm2.73-1.043c0-.434-.164-.809-.48-1.102a1.63 1.63 0 0 0-1.14-.437h-1.638v5.105h.528v-2.02h.605l1.504 2.02h.703l-1.574-2.02a1.54 1.54 0 0 0 1.012-.43c.316-.288.48-.667.48-1.116Zm0 0" fill="#ffffff"/>
        <path d="M212.274 318.918v-.488h-2.508v-1.817h2.43v-.496h-2.43v-1.816h2.508v-.488h-3.036v5.105Zm0 0" fill="#ffffff"/>
        <path d="m219.57 317.043.93-2.352.922 2.352Zm3.169 1.875-2.239-5.457-2.246 5.457h.57l.551-1.39h2.243l.546 1.39Zm0 0" fill="#ffffff"/>
        <path d="M229.247 318.39v-4.577h-.528v5.105h2.352v-.527Zm0 0" fill="#ffffff"/>
        <path d="M237.655 318.918v-5.105h-.528v5.105Zm0 0" fill="#ffffff"/>
        <path d="M243.71 314.285h1.243v4.617h.523v-4.617h1.238v-.488h-3.004Zm0 0" fill="#ffffff"/>
        <path d="m254.75 316.516 1.925-2.703h-.668l-1.524 2.183-1.523-2.183h-.676l1.938 2.71v2.395h.527Zm0 0" fill="#ffffff"/>
        <path d="M262.432 318.664v.54l3.2-1.583v-.535l-3.2-1.582v.539l2.766 1.313Zm0 0" fill="#ffffff"/>
    </g>
</svg>
